<svg width="47" height="29" viewBox="0 0 47 29" fill="none" xmlns="http://www.w3.org/2000/svg">
<path fill-rule="evenodd" clip-rule="evenodd" d="M23.3682 9.02826C23.3682 9.02826 34.0451 9.99162 36.7311 13.7789C39.4171 17.5663 36.8654 19.028 35.6567 20.2905C34.448 21.5529 25.2485 28.0643 0 28.596C12.541 29.9363 36.2774 28.0791 44.5205 20.955C55.1715 11.7497 28.3669 8.66546 23.3682 9.02826Z" fill="#077660"/>
<path fill-rule="evenodd" clip-rule="evenodd" d="M41 1.76172C41 1.76172 25.6663 0.00410639 16.3976 4.59825C-2.0623 13.7483 17.5081 22.142 21.1846 23C16.7074 22.6232 10.9288 21.3018 6.80983 18.7089C4.29203 17.124 -2.04959 11.3895 5.80238 5.06923C14.1265 -1.6313 33.7235 -0.508366 41 1.76172Z" fill="#077660"/>
<path fill-rule="evenodd" clip-rule="evenodd" d="M43 3.80472C43 3.80472 30.5681 3.18979 22.3701 7.10025C6.85952 14.499 24.0061 22.0802 26.0575 21.9994C22.2463 21.6582 17.3016 20.5879 13.821 18.4095C11.2034 16.7711 7.52426 13.6044 12.3572 8.82394C17.8116 3.42858 36.6191 1.851 43 3.80472Z" fill="#033C34"/>
</svg>
