<svg width="198" height="122" viewBox="0 0 198 122" fill="none" xmlns="http://www.w3.org/2000/svg">
<path d="M34.4619 40.659C34.8736 40.5224 35.2543 40.3061 35.5824 40.0224C35.9104 39.7388 36.1793 39.3934 36.3737 39.0059C36.5682 38.6184 36.6843 38.1965 36.7156 37.7642C36.7468 37.3318 36.6925 36.8976 36.5558 36.4862C36.419 36.0749 36.2026 35.6945 35.9187 35.3667C35.6348 35.0389 35.2891 34.7703 34.9013 34.576C34.5135 34.3817 34.0913 34.2657 33.6586 34.2345C33.2259 34.2032 32.7913 34.2575 32.3796 34.3941C27.1017 36.1639 22.4678 39.4583 19.0643 43.8603C15.6608 48.2624 13.6406 53.5743 13.2594 59.1238C13.2285 59.5576 13.2837 59.9932 13.4219 60.4055C13.5602 60.8178 13.7787 61.1988 14.0648 61.5264C14.351 61.854 14.6992 62.1218 15.0894 62.3144C15.4796 62.507 15.904 62.6206 16.3383 62.6487H16.5561C17.3954 62.6504 18.2038 62.3326 18.8169 61.7599C19.4299 61.1871 19.8016 60.4025 19.8561 59.5657C20.1505 55.3237 21.6958 51.2638 24.297 47.8984C26.8982 44.533 30.4387 42.0127 34.4718 40.6557L34.4619 40.659Z" fill="url(#paint0_linear_2044_1243)"/>
<path d="M184.8 49.4595H171.6C171.6 46.836 170.557 44.3199 168.7 42.4648C166.844 40.6097 164.326 39.5676 161.7 39.5676H149.018C145.777 34.2567 141.375 29.7477 136.141 26.3786C130.908 23.0095 124.98 20.8676 118.8 20.1135V11.5405C118.8 8.4798 117.583 5.54442 115.417 3.38015C113.251 1.21587 110.313 0 107.25 0C104.187 0 101.249 1.21587 99.0829 3.38015C96.9169 5.54442 95.7 8.4798 95.7 11.5405V19.7838H89.1V11.5405C89.1 8.4798 87.8831 5.54442 85.7171 3.38015C83.551 1.21587 80.6132 0 77.55 0C74.4867 0 71.549 1.21587 69.3829 3.38015C67.2169 5.54442 66 8.4798 66 11.5405V19.7838H59.4V11.5405C59.4 8.4798 58.1831 5.54442 56.0171 3.38015C53.851 1.21588 50.9132 2.43199e-07 47.85 2.43199e-07C44.7867 2.43199e-07 41.849 1.21588 39.6829 3.38015C37.5169 5.54442 36.3 8.4798 36.3 11.5405V20.1135C27.4734 21.1896 19.2311 25.0867 12.8015 31.2241C6.37189 37.3615 2.09927 45.4105 0.620398 54.1715C-0.858472 62.9326 0.535594 71.9366 4.59482 79.8415C8.65405 87.7465 15.1611 94.1293 23.1462 98.0385L19.9287 114.113C19.8489 114.539 19.8113 114.972 19.8165 115.405H3.3C2.42479 115.405 1.58542 115.753 0.966548 116.371C0.347678 116.99 0 117.828 0 118.703C0 119.577 0.347678 120.416 0.966548 121.034C1.58542 121.653 2.42479 122 3.3 122H194.7C195.575 122 196.415 121.653 197.033 121.034C197.652 120.416 198 119.577 198 118.703V62.6487C198 59.1507 196.609 55.7959 194.134 53.3225C191.658 50.849 188.301 49.4595 184.8 49.4595ZM178.2 115.405H135.3C135.305 114.971 135.268 114.537 135.188 114.11L131.96 97.9891C136.051 95.988 139.789 93.3365 143.029 90.1382C146.226 86.9253 148.872 83.2078 150.859 79.1351H161.7C164.326 79.1351 166.844 78.093 168.7 76.2379C170.557 74.3828 171.6 71.8667 171.6 69.2432H178.2V115.405ZM161.7 46.1622C162.575 46.1622 163.415 46.5096 164.033 47.1279C164.652 47.7463 165 48.585 165 49.4595V69.2432C165 70.1177 164.652 70.9564 164.033 71.5748C163.415 72.1932 162.575 72.5405 161.7 72.5405H153.45C155.993 63.8614 155.585 54.5846 152.288 46.1622H161.7ZM102.3 11.5405C102.3 10.2288 102.822 8.97077 103.75 8.04323C104.678 7.11568 105.937 6.59459 107.25 6.59459C108.563 6.59459 109.822 7.11568 110.75 8.04323C111.678 8.97077 112.2 10.2288 112.2 11.5405V19.7838H102.3V11.5405ZM72.6 11.5405C72.6 10.2288 73.1215 8.97077 74.0498 8.04323C74.9781 7.11568 76.2372 6.59459 77.55 6.59459C78.8628 6.59459 80.1219 7.11568 81.0502 8.04323C81.9785 8.97077 82.5 10.2288 82.5 11.5405V19.7838H72.6V11.5405ZM47.85 6.59459C48.501 6.5911 49.1463 6.71664 49.7484 6.96396C50.3506 7.21128 50.8976 7.57546 51.358 8.03543C51.8183 8.4954 52.1828 9.04203 52.4303 9.64368C52.6779 10.2453 52.8035 10.8901 52.8 11.5405V19.7838H42.9V11.5405C42.9 10.2288 43.4215 8.97077 44.3498 8.04323C45.2781 7.11568 46.5372 6.59459 47.85 6.59459ZM6.6 61C6.6099 41.8823 22.1166 26.3883 41.25 26.3784H113.85C120.702 26.3805 127.399 28.4122 133.095 32.2166C138.791 36.021 143.231 41.4274 145.852 47.7523C148.474 54.0773 149.16 61.0369 147.824 67.7514C146.488 74.4659 143.19 80.634 138.346 85.4758C136.042 87.7523 133.436 89.7017 130.601 91.2692L129.891 87.7312C129.588 86.2388 128.778 84.8968 127.599 83.9315C126.42 82.9663 124.944 82.4368 123.42 82.4324H114.18C112.656 82.4368 111.18 82.9663 110.001 83.9315C108.822 84.8968 108.012 86.2388 107.709 87.7312L106.131 95.6216H48.9687L47.3913 87.7312C47.0875 86.2388 46.2779 84.8968 45.099 83.9315C43.9202 82.9663 42.4442 82.4368 40.92 82.4324H31.68C30.1558 82.4368 28.6798 82.9663 27.501 83.9315C26.3221 84.8968 25.5125 86.2388 25.2087 87.7312L24.4959 91.2989C19.0644 88.3202 14.5361 83.9346 11.387 78.603C8.23798 73.2715 6.58437 67.1908 6.6 61ZM52.6713 114.11L50.2887 102.216H104.811L102.429 114.113C102.349 114.539 102.311 114.972 102.316 115.405H52.8C52.8 114.97 52.7571 114.535 52.6713 114.11ZM26.4 115.405L31.68 89.027H40.92L46.2 115.405H26.4ZM108.9 115.405L114.18 89.027H123.42L128.7 115.405H108.9ZM184.8 115.405V65.9459C184.8 65.0714 184.452 64.2328 183.833 63.6144C183.215 62.996 182.375 62.6487 181.5 62.6487H171.6V56.0541H184.8C186.55 56.0541 188.229 56.7488 189.467 57.9856C190.705 59.2223 191.4 60.8997 191.4 62.6487V115.405H184.8Z" fill="url(#paint1_linear_2044_1243)"/>
<path d="M72.4515 88.0609C74.943 88.7006 77.5005 89.027 80.0745 89.027C83.5943 89.193 87.1038 88.5291 90.3193 87.0891C93.5347 85.6491 96.366 83.4733 98.5842 80.7376C100.24 78.4249 101.381 75.7844 101.93 72.9939C102.479 70.2035 102.423 67.328 101.765 64.5611C100.864 60.9362 99.3301 57.4985 97.2345 54.4054C95.1169 51.4188 92.6522 48.6938 89.892 46.2875L88.9317 45.384C87.5714 44.1819 86.7157 42.5107 86.5359 40.7051C86.5034 40.3884 86.4825 40.0705 86.4732 39.7522L86.3016 32.8971C86.2849 32.2483 86.0769 31.6189 85.7038 31.0877C85.3306 30.5565 84.8089 30.1471 84.2039 29.9109C83.5989 29.6746 82.9376 29.6221 82.3028 29.7597C81.6681 29.8973 81.0881 30.2191 80.6355 30.6847L75.9627 35.5053C75.4941 35.9867 75.0156 36.4582 74.4645 36.999C73.1359 38.2568 71.8893 39.5982 70.7322 41.0151C69.1497 42.7199 68.0188 44.793 67.4424 47.0458C66.8661 49.2986 66.8626 51.6596 67.4322 53.9141C67.8348 55.1539 68.3958 56.3343 69.102 57.429C69.564 58.0984 69.9138 58.837 70.1448 59.6151C70.2339 60.0471 70.1019 60.1823 70.0425 60.2449C69.8577 60.4296 69.5541 60.5318 68.9106 60.5153C68.323 60.3456 67.8014 60.0004 67.4157 59.5261L63.9672 55.6122C63.5731 55.1649 63.0649 54.8326 62.4969 54.6508C61.9288 54.469 61.322 54.4444 60.7411 54.5797C60.1602 54.715 59.6268 55.0051 59.1977 55.4192C58.7687 55.8332 58.4599 56.3558 58.3044 56.9311L56.9184 62.0452C55.9654 65.2288 55.7832 68.593 56.3868 71.8607C56.9904 75.1284 58.3625 78.206 60.39 80.8398C63.58 84.4188 67.7884 86.9384 72.4515 88.0609ZM63.1092 64.5512C64.3005 65.7118 65.7822 66.5296 67.3992 66.9253C68.7043 67.2253 70.064 67.1917 71.3526 66.8274C72.6412 66.4632 73.8171 65.7801 74.7714 64.8414C75.5952 63.9883 76.195 62.9448 76.5174 61.804C76.8398 60.6632 76.8749 59.4604 76.6194 58.3028C76.2564 56.7861 75.6294 55.3418 74.7681 54.0394C74.3637 53.4198 74.0315 52.7561 73.7781 52.061C73.5366 50.8125 73.6059 49.5238 73.9799 48.3083C74.3539 47.0928 75.0212 45.9878 75.9231 45.0905C76.9131 43.8969 77.9724 42.7627 79.101 41.7009L79.9293 40.8832C79.9293 41.0613 79.959 41.236 79.9755 41.4108C80.3249 44.7766 81.8997 47.8968 84.4008 50.1783L85.3908 51.1081C87.7734 53.1656 89.9052 55.4935 91.74 58.0522C93.4045 60.4971 94.6244 63.2162 95.3436 66.0844C95.7856 67.9184 95.8296 69.8256 95.4727 71.6779C95.1158 73.5303 94.3663 75.2848 93.2745 76.8237C91.6626 78.72 89.63 80.2141 87.3384 81.1873C85.0468 82.1604 82.5595 82.5856 80.0745 82.4291C78.0707 82.4292 76.075 82.1766 74.1345 81.6774C70.7928 80.8963 67.7667 79.1212 65.4555 76.5863C64.1819 74.8867 63.3093 72.9213 62.903 70.8372C62.4967 68.7531 62.5672 66.6042 63.1092 64.5512Z" fill="url(#paint2_linear_2044_1243)"/>
<defs>
<linearGradient id="paint0_linear_2044_1243" x1="99" y1="0" x2="99" y2="122" gradientUnits="userSpaceOnUse">
<stop stop-color="#E6F1EF"/>
<stop offset="1" stop-color="white"/>
</linearGradient>
<linearGradient id="paint1_linear_2044_1243" x1="99" y1="0" x2="99" y2="122" gradientUnits="userSpaceOnUse">
<stop stop-color="#E6F1EF"/>
<stop offset="1" stop-color="white"/>
</linearGradient>
<linearGradient id="paint2_linear_2044_1243" x1="99" y1="0" x2="99" y2="122" gradientUnits="userSpaceOnUse">
<stop stop-color="#E6F1EF"/>
<stop offset="1" stop-color="white"/>
</linearGradient>
</defs>
</svg>
