<svg width="226" height="122" viewBox="0 0 226 122" fill="none" xmlns="http://www.w3.org/2000/svg">
<path d="M223.375 100.783H157.52V53.0435V50.3913C157.52 49.6879 157.243 49.0133 156.751 48.5159C156.258 48.0186 155.591 47.7391 154.894 47.7391H152.269V29.1739C152.269 28.4705 151.992 27.7959 151.5 27.2985C151.008 26.8012 150.34 26.5217 149.644 26.5217H139.142C138.446 26.5217 137.778 26.8012 137.286 27.2985C136.794 27.7959 136.517 28.4705 136.517 29.1739V47.7391H131.266V29.1739C131.266 28.4705 130.99 27.7959 130.497 27.2985C130.005 26.8012 129.337 26.5217 128.641 26.5217H78.7598V21.2174H112.889C117.231 21.2174 120.765 17.6476 120.765 13.2609V7.95652C120.765 3.56983 117.231 0 112.889 0H23.6279C19.2857 0 15.752 3.56983 15.752 7.95652V13.2609C15.752 17.6476 19.2857 21.2174 23.6279 21.2174H52.5065V26.5217H7.87598C7.1797 26.5217 6.51194 26.8012 6.01959 27.2985C5.52725 27.7959 5.25065 28.4705 5.25065 29.1739V100.783H2.62533C1.92905 100.783 1.26128 101.062 0.76894 101.559C0.276596 102.057 0 102.731 0 103.435V119.348C0 120.051 0.276596 120.726 0.76894 121.223C1.26128 121.721 1.92905 122 2.62533 122H223.375C224.071 122 224.739 121.721 225.231 121.223C225.723 120.726 226 120.051 226 119.348V103.435C226 103.431 226 103.427 226 103.423C225.997 102.724 225.721 102.054 225.231 101.559C224.739 101.062 224.071 100.783 223.375 100.783ZM141.768 31.8261H147.018V47.7391H141.768V31.8261ZM152.269 53.0435V100.783H131.266V53.0435H152.269ZM42.0052 5.30435H94.5118V15.913H42.0052V5.30435ZM36.7546 15.913H31.5039V5.30435H36.7546V15.913ZM99.7624 5.30435H105.013V15.913H99.7624V5.30435ZM115.514 7.95652V13.2609C115.514 13.9643 115.238 14.6389 114.745 15.1362C114.253 15.6336 113.585 15.913 112.889 15.913H110.264V5.30435H112.889C113.585 5.30435 114.253 5.58377 114.745 6.08115C115.238 6.57853 115.514 7.25312 115.514 7.95652ZM21.0026 13.2609V7.95652C21.0026 7.25312 21.2792 6.57853 21.7716 6.08115C22.2639 5.58377 22.9317 5.30435 23.6279 5.30435H26.2533V15.913H23.6279C22.9317 15.913 22.2639 15.6336 21.7716 15.1362C21.2792 14.6389 21.0026 13.9643 21.0026 13.2609ZM57.7572 21.2174H73.5092V26.5217H57.7572V21.2174ZM10.5013 31.8261H126.016V100.783H10.5013V31.8261ZM220.749 116.696H5.25065V106.087H220.749V116.696Z" fill="url(#paint0_linear_2044_1246)"/>
<path d="M70.8838 37.1304H28.8786C28.1823 37.1304 27.5146 37.4099 27.0222 37.9072C26.5299 38.4046 26.2533 39.0792 26.2533 39.7826V42.4348H18.3773C17.681 42.4348 17.0132 42.7142 16.5209 43.2116C16.0286 43.709 15.752 44.3836 15.752 45.087V55.6957C15.752 56.3991 16.0286 57.0736 16.5209 57.571C17.0132 58.0684 17.681 58.3478 18.3773 58.3478H26.2533V74.2609H18.3773C17.681 74.2609 17.0132 74.5403 16.5209 75.0377C16.0286 75.5351 15.752 76.2096 15.752 76.913V87.5217C15.752 88.2251 16.0286 88.8997 16.5209 89.3971C17.0132 89.8945 17.681 90.1739 18.3773 90.1739H26.2533V92.8261C26.2533 93.5295 26.5299 94.2041 27.0222 94.7015C27.5146 95.1988 28.1823 95.4783 28.8786 95.4783H70.8838C71.5801 95.4783 72.2479 95.1988 72.7402 94.7015C73.2326 94.2041 73.5092 93.5295 73.5092 92.8261V39.7826C73.5092 39.0792 73.2326 38.4046 72.7402 37.9072C72.2479 37.4099 71.5801 37.1304 70.8838 37.1304ZM21.0026 53.0435V47.7391H26.2533V53.0435H21.0026ZM21.0026 84.8696V79.5652H26.2533V84.8696H21.0026ZM68.2585 90.1739H31.5039V42.4348H68.2585V90.1739Z" fill="url(#paint1_linear_2044_1246)"/>
<path d="M57.7566 58.3478H63.0073V74.2609H57.7566V58.3478ZM118.139 37.1304H81.3846C80.6883 37.1304 80.0205 37.4099 79.5282 37.9072C79.0359 38.4046 78.7593 39.0792 78.7593 39.7826V61C78.7593 61.7034 79.0359 62.378 79.5282 62.8754C80.0205 63.3728 80.6883 63.6522 81.3846 63.6522H118.139C118.835 63.6522 119.503 63.3728 119.996 62.8754C120.488 62.378 120.764 61.7034 120.764 61V39.7826C120.764 39.0792 120.488 38.4046 119.996 37.9072C119.503 37.4099 118.835 37.1304 118.139 37.1304ZM94.5112 42.4348H105.013V47.7391H94.5112V42.4348ZM115.514 58.3478H84.0099V42.4348H89.2606V50.3913C89.2606 51.0947 89.5372 51.7693 90.0295 52.2667C90.5219 52.7641 91.1896 53.0435 91.8859 53.0435H107.638C108.334 53.0435 109.002 52.7641 109.494 52.2667C109.987 51.7693 110.263 51.0947 110.263 50.3913V42.4348H115.514V58.3478ZM118.139 68.9565H81.3846C80.6883 68.9565 80.0205 69.236 79.5282 69.7333C79.0359 70.2307 78.7593 70.9053 78.7593 71.6087V92.8261C78.7593 93.5295 79.0359 94.2041 79.5282 94.7015C80.0205 95.1988 80.6883 95.4783 81.3846 95.4783H118.139C118.835 95.4783 119.503 95.1988 119.996 94.7015C120.488 94.2041 120.764 93.5295 120.764 92.8261V71.6087C120.764 70.9053 120.488 70.2307 119.996 69.7333C119.503 69.236 118.835 68.9565 118.139 68.9565ZM94.5112 74.2609H105.013V79.5652H94.5112V74.2609ZM115.514 90.1739H84.0099V74.2609H89.2606V82.2174C89.2606 82.9208 89.5372 83.5954 90.0295 84.0928C90.5219 84.5901 91.1896 84.8696 91.8859 84.8696H107.638C108.334 84.8696 109.002 84.5901 109.494 84.0928C109.987 83.5954 110.263 82.9208 110.263 82.2174V74.2609H115.514V90.1739Z" fill="url(#paint2_linear_2044_1246)"/>
<path d="M170.87 47.7391V29.1739C170.87 28.4705 170.594 27.7959 170.101 27.2985C169.609 26.8012 168.941 26.5217 168.245 26.5217H157.744C157.047 26.5217 156.379 26.8012 155.887 27.2985C155.395 27.7959 155.118 28.4705 155.118 29.1739V47.7391H160.369V31.8261H165.62V47.7391H170.87Z" fill="url(#paint3_linear_2044_1246)"/>
<path d="M170.87 100.783H176.121V50.3913C176.121 49.6879 175.844 49.0133 175.352 48.5159C174.86 48.0186 174.192 47.7391 173.495 47.7391H170.87H165.62H160.369H155.118H154.894C155.591 47.7391 156.258 48.0186 156.751 48.5159C157.243 49.0133 157.52 49.6879 157.52 50.3913V53.0435H170.87V100.783Z" fill="url(#paint4_linear_2044_1246)"/>
<path d="M189.585 47.7391V29.1739C189.585 28.4705 189.308 27.7959 188.816 27.2985C188.324 26.8012 187.656 26.5217 186.96 26.5217H176.458C175.762 26.5217 175.094 26.8012 174.602 27.2985C174.11 27.7959 173.833 28.4705 173.833 29.1739V47.7391H179.084V31.8261H184.334V47.7391H189.585Z" fill="url(#paint5_linear_2044_1246)"/>
<path d="M189.585 100.783H194.836V53.0435V50.3913C194.836 49.6879 194.559 49.0133 194.067 48.5159C193.574 48.0186 192.907 47.7391 192.21 47.7391H189.585H184.334H179.084H173.833H173.609C174.305 47.7391 174.973 48.0186 175.465 48.5159C175.958 49.0133 176.234 49.6879 176.234 50.3913V53.0435H189.585V100.783Z" fill="url(#paint6_linear_2044_1246)"/>
<path d="M220.749 100.783H223.375C224.071 100.783 224.739 101.062 225.231 101.559C225.721 102.054 225.997 102.724 226 103.423L225.89 53.0435V50.3913C225.89 49.6879 225.613 49.0133 225.121 48.5159C224.628 48.0186 224.071 47.7391 223.375 47.7391H220.749H192.324H192.21C192.907 47.7391 193.574 48.0186 194.067 48.5159C194.559 49.0133 194.836 49.6879 194.836 50.3913V53.0435H220.749V100.783Z" fill="url(#paint7_linear_2044_1246)"/>
<defs>
<linearGradient id="paint0_linear_2044_1246" x1="113" y1="0" x2="113" y2="122" gradientUnits="userSpaceOnUse">
<stop stop-color="#E6F1EF"/>
<stop offset="1" stop-color="white"/>
</linearGradient>
<linearGradient id="paint1_linear_2044_1246" x1="113" y1="0" x2="113" y2="122" gradientUnits="userSpaceOnUse">
<stop stop-color="#E6F1EF"/>
<stop offset="1" stop-color="white"/>
</linearGradient>
<linearGradient id="paint2_linear_2044_1246" x1="113" y1="0" x2="113" y2="122" gradientUnits="userSpaceOnUse">
<stop stop-color="#E6F1EF"/>
<stop offset="1" stop-color="white"/>
</linearGradient>
<linearGradient id="paint3_linear_2044_1246" x1="113" y1="0" x2="113" y2="122" gradientUnits="userSpaceOnUse">
<stop stop-color="#E6F1EF"/>
<stop offset="1" stop-color="white"/>
</linearGradient>
<linearGradient id="paint4_linear_2044_1246" x1="113" y1="0" x2="113" y2="122" gradientUnits="userSpaceOnUse">
<stop stop-color="#E6F1EF"/>
<stop offset="1" stop-color="white"/>
</linearGradient>
<linearGradient id="paint5_linear_2044_1246" x1="113" y1="0" x2="113" y2="122" gradientUnits="userSpaceOnUse">
<stop stop-color="#E6F1EF"/>
<stop offset="1" stop-color="white"/>
</linearGradient>
<linearGradient id="paint6_linear_2044_1246" x1="113" y1="0" x2="113" y2="122" gradientUnits="userSpaceOnUse">
<stop stop-color="#E6F1EF"/>
<stop offset="1" stop-color="white"/>
</linearGradient>
<linearGradient id="paint7_linear_2044_1246" x1="113" y1="0" x2="113" y2="122" gradientUnits="userSpaceOnUse">
<stop stop-color="#E6F1EF"/>
<stop offset="1" stop-color="white"/>
</linearGradient>
</defs>
</svg>
