<svg width="195" height="122" viewBox="0 0 195 122" fill="none" xmlns="http://www.w3.org/2000/svg">
<path d="M77.8616 23.4615C73.8371 23.4615 70.5621 26.6195 70.5621 30.5V91.5C70.5621 95.3805 73.8371 98.5385 77.8616 98.5385C81.8861 98.5385 85.1611 95.3805 85.1611 91.5V30.5C85.1611 26.6195 81.8861 23.4615 77.8616 23.4615ZM80.2948 91.5C80.2948 92.1222 80.0384 92.719 79.5821 93.159C79.1258 93.599 78.5069 93.8461 77.8616 93.8461C77.2163 93.8461 76.5974 93.599 76.1411 93.159C75.6848 92.719 75.4284 92.1222 75.4284 91.5V30.5C75.4284 29.8778 75.6848 29.281 76.1411 28.841C76.5974 28.401 77.2163 28.1538 77.8616 28.1538C78.5069 28.1538 79.1258 28.401 79.5821 28.841C80.0384 29.281 80.2948 29.8778 80.2948 30.5V91.5ZM29.1981 23.4615C25.1736 23.4615 21.8986 26.6195 21.8986 30.5V91.5C21.8986 95.3805 25.1736 98.5385 29.1981 98.5385C33.2226 98.5385 36.4976 95.3805 36.4976 91.5V30.5C36.4976 26.6195 33.2226 23.4615 29.1981 23.4615ZM31.6313 91.5C31.6313 92.1222 31.3749 92.719 30.9186 93.159C30.4623 93.599 29.8434 93.8461 29.1981 93.8461C28.5528 93.8461 27.9339 93.599 27.4776 93.159C27.0213 92.719 26.7649 92.1222 26.7649 91.5V30.5C26.7649 29.8778 27.0213 29.281 27.4776 28.841C27.9339 28.401 28.5528 28.1538 29.1981 28.1538C29.8434 28.1538 30.4623 28.401 30.9186 28.841C31.3749 29.281 31.6313 29.8778 31.6313 30.5V91.5ZM53.5298 23.4615C49.5054 23.4615 46.2303 26.6195 46.2303 30.5V91.5C46.2303 95.3805 49.5054 98.5385 53.5298 98.5385C57.5543 98.5385 60.8294 95.3805 60.8294 91.5V30.5C60.8294 26.6195 57.5543 23.4615 53.5298 23.4615ZM55.963 91.5C55.963 92.1222 55.7067 92.719 55.2504 93.159C54.794 93.599 54.1752 93.8461 53.5298 93.8461C52.8845 93.8461 52.2656 93.599 51.8093 93.159C51.353 92.719 51.0967 92.1222 51.0967 91.5V30.5C51.0967 29.8778 51.353 29.281 51.8093 28.841C52.2656 28.401 52.8845 28.1538 53.5298 28.1538C54.1752 28.1538 54.794 28.401 55.2504 28.841C55.7067 29.281 55.963 29.8778 55.963 30.5V91.5Z" fill="url(#paint0_linear_2044_1240)"/>
<path fill-rule="evenodd" clip-rule="evenodd" d="M102.193 14.0769C101.548 14.0769 100.929 13.8297 100.473 13.3898C100.017 12.9498 99.7602 12.353 99.7602 11.7308V9.38461C99.7602 4.209 95.395 0 90.0275 0C84.6599 0 80.2948 4.209 80.2948 9.38461V11.7308C80.2948 12.353 80.0384 12.9498 79.5821 13.3898C79.1258 13.8297 78.5069 14.0769 77.8616 14.0769C77.2163 14.0769 76.5974 13.8297 76.1411 13.3898C75.6848 12.9498 75.4284 12.353 75.4284 11.7308V9.38461C75.4284 4.209 71.0633 0 65.6957 0C60.3281 0 55.963 4.209 55.963 9.38461V11.7308C55.963 12.353 55.7067 12.9498 55.2504 13.3898C54.794 13.8297 54.1752 14.0769 53.5298 14.0769C52.8845 14.0769 52.2656 13.8297 51.8093 13.3898C51.353 12.9498 51.0967 12.353 51.0967 11.7308V9.38461C51.0967 4.209 46.7316 0 41.364 0C35.9964 0 31.6313 4.209 31.6313 9.38461V11.7308C31.6313 12.353 31.3749 12.9498 30.9186 13.3898C30.4623 13.8297 29.8434 14.0769 29.1981 14.0769C28.5528 14.0769 27.9339 13.8297 27.4776 13.3898C27.0213 12.9498 26.7649 12.353 26.7649 11.7308V9.38461C26.7649 4.209 22.3998 0 17.0322 0C11.6646 0 7.29952 4.209 7.29952 9.38461V14.0769H0V30.5H7.29952V91.5H0V107.923H7.29952V112.615C7.29952 117.791 11.6646 122 17.0322 122C22.3998 122 26.7649 117.791 26.7649 112.615V110.269C26.7649 109.647 27.0213 109.05 27.4776 108.61C27.9339 108.17 28.5528 107.923 29.1981 107.923C29.8434 107.923 30.4623 108.17 30.9186 108.61C31.3749 109.05 31.6313 109.647 31.6313 110.269V112.615C31.6313 117.791 35.9964 122 41.364 122C46.7316 122 51.0967 117.791 51.0967 112.615V110.269C51.0967 109.647 51.353 109.05 51.8093 108.61C52.2656 108.17 52.8845 107.923 53.5298 107.923C54.1752 107.923 54.794 108.17 55.2504 108.61C55.7067 109.05 55.963 109.647 55.963 110.269V112.615C55.963 117.791 60.3281 122 65.6957 122C71.0633 122 75.4284 117.791 75.4284 112.615V110.269C75.4284 109.647 75.6848 109.05 76.1411 108.61C76.5974 108.17 77.2163 107.923 77.8616 107.923C78.5069 107.923 79.1258 108.17 79.5821 108.61C80.0384 109.05 80.2948 109.647 80.2948 110.269V112.615C80.2948 117.791 84.6599 122 90.0275 122C95.395 122 99.7602 117.791 99.7602 112.615V110.269C99.7602 109.647 100.017 109.05 100.473 108.61C100.929 108.17 101.548 107.923 102.193 107.923V103.231C98.1689 103.231 94.8938 106.389 94.8938 110.269V112.615C94.8938 115.203 92.7113 117.308 90.0275 117.308C87.3437 117.308 85.1611 115.203 85.1611 112.615V110.269C85.1611 106.389 81.8861 103.231 77.8616 103.231C73.8371 103.231 70.5621 106.389 70.5621 110.269V112.615C70.5621 115.203 68.3795 117.308 65.6957 117.308C63.0119 117.308 60.8294 115.203 60.8294 112.615V110.269C60.8294 106.389 57.5543 103.231 53.5298 103.231C49.5054 103.231 46.2303 106.389 46.2303 110.269V112.615C46.2303 115.203 44.0478 117.308 41.364 117.308C38.6802 117.308 36.4976 115.203 36.4976 112.615V110.269C36.4976 106.389 33.2226 103.231 29.1981 103.231C25.1736 103.231 21.8986 106.389 21.8986 110.269V112.615C21.8986 115.203 19.716 117.308 17.0322 117.308C14.3484 117.308 12.1659 115.203 12.1659 112.615V9.38461C12.1659 6.79681 14.3484 4.69231 17.0322 4.69231C19.716 4.69231 21.8986 6.79681 21.8986 9.38461V11.7308C21.8986 15.6113 25.1736 18.7692 29.1981 18.7692C33.2226 18.7692 36.4976 15.6113 36.4976 11.7308V9.38461C36.4976 6.79681 38.6802 4.69231 41.364 4.69231C44.0478 4.69231 46.2303 6.79681 46.2303 9.38461V11.7308C46.2303 15.6113 49.5054 18.7692 53.5298 18.7692C57.5543 18.7692 60.8294 15.6113 60.8294 11.7308V9.38461C60.8294 6.79681 63.0119 4.69231 65.6957 4.69231C68.3795 4.69231 70.5621 6.79681 70.5621 9.38461V11.7308C70.5621 15.6113 73.8371 18.7692 77.8616 18.7692C81.8861 18.7692 85.1611 15.6113 85.1611 11.7308V9.38461C85.1611 6.79681 87.3437 4.69231 90.0275 4.69231C92.7113 4.69231 94.8938 6.79681 94.8938 9.38461V11.7308C94.8938 15.6113 98.1689 18.7692 102.193 18.7692V14.0769ZM4.86635 18.7692V25.8077H7.29952V18.7692H4.86635ZM4.86635 96.1923V103.231H7.29952V96.1923H4.86635Z" fill="url(#paint1_linear_2044_1240)"/>
<path d="M102.193 23.4615C98.1689 23.4615 94.8938 26.6195 94.8938 30.5V91.5C94.8938 95.3805 98.1689 98.5385 102.193 98.5385V93.8461C101.548 93.8461 100.929 93.599 100.473 93.159C100.017 92.719 99.7602 92.1222 99.7602 91.5V30.5C99.7602 29.8778 100.017 29.281 100.473 28.841C100.929 28.401 101.548 28.1538 102.193 28.1538V23.4615Z" fill="url(#paint2_linear_2044_1240)"/>
<path fill-rule="evenodd" clip-rule="evenodd" d="M188.944 30.5C192.285 30.5 195 27.87 195 24.6346V17.5962C195 14.3608 192.285 11.7308 188.944 11.7308C185.604 11.7308 182.888 14.3608 182.888 17.5962V18.7692H180.466V11.7308H173.199V9.38461C173.199 4.209 168.853 0 163.509 0V4.69231C166.181 4.69231 168.354 6.79681 168.354 9.38461V112.615C168.354 115.203 166.181 117.308 163.509 117.308V122C168.853 122 173.199 117.791 173.199 112.615V107.923H180.466V105.577H195V93.8461H180.466V91.5H173.199V30.5H180.466V23.4615H182.888V24.6346C182.888 27.87 185.604 30.5 188.944 30.5ZM190.155 100.885V98.5385H180.466V100.885H190.155ZM175.621 103.231V96.1923H173.199V103.231H175.621ZM173.199 25.8077H175.621V16.4231H173.199V25.8077ZM188.944 16.4231C188.278 16.4231 187.733 16.951 187.733 17.5962V24.6346C187.733 25.2798 188.278 25.8077 188.944 25.8077C189.61 25.8077 190.155 25.2798 190.155 24.6346V17.5962C190.155 16.951 189.61 16.4231 188.944 16.4231Z" fill="url(#paint3_linear_2044_1240)"/>
<path d="M151.246 23.4615C147.189 23.4615 143.888 26.6195 143.888 30.5V91.5C143.888 95.3805 147.189 98.5385 151.246 98.5385C155.303 98.5385 158.604 95.3805 158.604 91.5V30.5C158.604 26.6195 155.303 23.4615 151.246 23.4615ZM153.699 91.5C153.699 92.1222 153.44 92.719 152.98 93.159C152.52 93.599 151.897 93.8461 151.246 93.8461C150.596 93.8461 149.972 93.599 149.512 93.159C149.052 92.719 148.793 92.1222 148.793 91.5V30.5C148.793 29.8778 149.052 29.281 149.512 28.841C149.972 28.401 150.596 28.1538 151.246 28.1538C151.897 28.1538 152.52 28.401 152.98 28.841C153.44 29.281 153.699 29.8778 153.699 30.5V91.5ZM126.72 23.4615C122.663 23.4615 119.362 26.6195 119.362 30.5V91.5C119.362 95.3805 122.663 98.5385 126.72 98.5385C130.776 98.5385 134.078 95.3805 134.078 91.5V30.5C134.078 26.6195 130.776 23.4615 126.72 23.4615ZM129.172 91.5C129.172 92.1222 128.914 92.719 128.454 93.159C127.994 93.599 127.37 93.8461 126.72 93.8461C126.069 93.8461 125.445 93.599 124.985 93.159C124.525 92.719 124.267 92.1222 124.267 91.5V30.5C124.267 29.8778 124.525 29.281 124.985 28.841C125.445 28.401 126.069 28.1538 126.72 28.1538C127.37 28.1538 127.994 28.401 128.454 28.841C128.914 29.281 129.172 29.8778 129.172 30.5V91.5Z" fill="url(#paint4_linear_2044_1240)"/>
<path d="M102.193 98.5385C106.25 98.5385 109.551 95.3805 109.551 91.5V30.5C109.551 26.6195 106.25 23.4615 102.193 23.4615V28.1538C102.844 28.1538 103.468 28.401 103.928 28.841C104.388 29.281 104.646 29.8778 104.646 30.5V91.5C104.646 92.1222 104.388 92.719 103.928 93.159C103.468 93.599 102.844 93.8461 102.193 93.8461V98.5385Z" fill="url(#paint5_linear_2044_1240)"/>
<path d="M163.509 0C158.099 0 153.699 4.209 153.699 9.38461V11.7308C153.699 12.353 153.44 12.9498 152.98 13.3898C152.52 13.8297 151.897 14.0769 151.246 14.0769C150.596 14.0769 149.972 13.8297 149.512 13.3898C149.052 12.9498 148.793 12.353 148.793 11.7308V9.38461C148.793 4.209 144.393 0 138.983 0C133.572 0 129.172 4.209 129.172 9.38461V11.7308C129.172 12.353 128.914 12.9498 128.454 13.3898C127.994 13.8297 127.37 14.0769 126.72 14.0769C126.069 14.0769 125.445 13.8297 124.985 13.3898C124.525 12.9498 124.267 12.353 124.267 11.7308V9.38461C124.267 4.209 119.867 0 114.457 0C109.046 0 104.646 4.209 104.646 9.38461V11.7308C104.646 12.353 104.388 12.9498 103.928 13.3898C103.468 13.8297 102.844 14.0769 102.193 14.0769V18.7692C106.25 18.7692 109.551 15.6113 109.551 11.7308V9.38461C109.551 6.79681 111.751 4.69231 114.457 4.69231C117.162 4.69231 119.362 6.79681 119.362 9.38461V11.7308C119.362 15.6113 122.663 18.7692 126.72 18.7692C130.776 18.7692 134.078 15.6113 134.078 11.7308V9.38461C134.078 6.79681 136.278 4.69231 138.983 4.69231C141.688 4.69231 143.888 6.79681 143.888 9.38461V11.7308C143.888 15.6113 147.189 18.7692 151.246 18.7692C155.303 18.7692 158.604 15.6113 158.604 11.7308V9.38461C158.604 6.79681 160.804 4.69231 163.509 4.69231V0Z" fill="url(#paint6_linear_2044_1240)"/>
<path d="M102.193 107.923C102.844 107.923 103.468 108.17 103.928 108.61C104.388 109.05 104.646 109.647 104.646 110.269V112.615C104.646 117.791 109.046 122 114.457 122C119.867 122 124.267 117.791 124.267 112.615V110.269C124.267 109.647 124.525 109.05 124.985 108.61C125.445 108.17 126.069 107.923 126.72 107.923C127.37 107.923 127.994 108.17 128.454 108.61C128.914 109.05 129.172 109.647 129.172 110.269V112.615C129.172 117.791 133.572 122 138.983 122C144.393 122 148.793 117.791 148.793 112.615V110.269C148.793 109.647 149.052 109.05 149.512 108.61C149.972 108.17 150.596 107.923 151.246 107.923C151.897 107.923 152.52 108.17 152.98 108.61C153.44 109.05 153.699 109.647 153.699 110.269V112.615C153.699 117.791 158.099 122 163.509 122V117.308C160.804 117.308 158.604 115.203 158.604 112.615V110.269C158.604 106.389 155.303 103.231 151.246 103.231C147.189 103.231 143.888 106.389 143.888 110.269V112.615C143.888 115.203 141.688 117.308 138.983 117.308C136.278 117.308 134.078 115.203 134.078 112.615V110.269C134.078 106.389 130.776 103.231 126.72 103.231C122.663 103.231 119.362 106.389 119.362 110.269V112.615C119.362 115.203 117.162 117.308 114.457 117.308C111.751 117.308 109.551 115.203 109.551 112.615V110.269C109.551 106.389 106.25 103.231 102.193 103.231V107.923Z" fill="url(#paint7_linear_2044_1240)"/>
<defs>
<linearGradient id="paint0_linear_2044_1240" x1="97.5" y1="0" x2="97.5" y2="122" gradientUnits="userSpaceOnUse">
<stop stop-color="#E6F1EF"/>
<stop offset="1" stop-color="white"/>
</linearGradient>
<linearGradient id="paint1_linear_2044_1240" x1="97.5" y1="0" x2="97.5" y2="122" gradientUnits="userSpaceOnUse">
<stop stop-color="#E6F1EF"/>
<stop offset="1" stop-color="white"/>
</linearGradient>
<linearGradient id="paint2_linear_2044_1240" x1="97.5" y1="0" x2="97.5" y2="122" gradientUnits="userSpaceOnUse">
<stop stop-color="#E6F1EF"/>
<stop offset="1" stop-color="white"/>
</linearGradient>
<linearGradient id="paint3_linear_2044_1240" x1="97.5" y1="0" x2="97.5" y2="122" gradientUnits="userSpaceOnUse">
<stop stop-color="#E6F1EF"/>
<stop offset="1" stop-color="white"/>
</linearGradient>
<linearGradient id="paint4_linear_2044_1240" x1="97.5" y1="0" x2="97.5" y2="122" gradientUnits="userSpaceOnUse">
<stop stop-color="#E6F1EF"/>
<stop offset="1" stop-color="white"/>
</linearGradient>
<linearGradient id="paint5_linear_2044_1240" x1="97.5" y1="0" x2="97.5" y2="122" gradientUnits="userSpaceOnUse">
<stop stop-color="#E6F1EF"/>
<stop offset="1" stop-color="white"/>
</linearGradient>
<linearGradient id="paint6_linear_2044_1240" x1="97.5" y1="0" x2="97.5" y2="122" gradientUnits="userSpaceOnUse">
<stop stop-color="#E6F1EF"/>
<stop offset="1" stop-color="white"/>
</linearGradient>
<linearGradient id="paint7_linear_2044_1240" x1="97.5" y1="0" x2="97.5" y2="122" gradientUnits="userSpaceOnUse">
<stop stop-color="#E6F1EF"/>
<stop offset="1" stop-color="white"/>
</linearGradient>
</defs>
</svg>
