<svg width="14" height="14" viewBox="0 0 14 14" fill="none" xmlns="http://www.w3.org/2000/svg">
<path fill-rule="evenodd" clip-rule="evenodd" d="M6.22222 1.74831e-07L13.2222 0C13.6518 5.46348e-07 14 0.348223 14 0.777778V7.77778C14 8.20733 13.6518 8.55556 13.2222 8.55556C12.7927 8.55556 12.4444 8.20733 12.4444 7.77778V2.6555L1.32775 13.7722C1.02401 14.0759 0.531547 14.0759 0.227806 13.7722C-0.0759353 13.4685 -0.0759353 12.976 0.227806 12.6723L11.3445 1.55556L6.22222 1.55556C5.79267 1.55556 5.44444 1.20733 5.44444 0.777778C5.44444 0.348223 5.79267 1.74831e-07 6.22222 1.74831e-07Z" fill="white"/>
</svg>
