<svg width="20" height="20" viewBox="0 0 20 20" fill="none" xmlns="http://www.w3.org/2000/svg">
<path fill-rule="evenodd" clip-rule="evenodd" d="M1.11111 10C1.11111 14.9092 5.0908 18.8889 10 18.8889C14.9092 18.8889 18.8889 14.9092 18.8889 10C18.8889 5.0908 14.9092 1.11111 10 1.11111C5.0908 1.11111 1.11111 5.0908 1.11111 10ZM10 0C4.47715 0 0 4.47715 0 10C0 15.5228 4.47715 20 10 20C15.5228 20 20 15.5228 20 10C20 4.47715 15.5228 0 10 0Z" fill="#9B9B9B"/>
<path d="M12.6778 9.53783C12.9169 9.7935 12.9169 10.2087 12.6778 10.4644L9.61722 13.7369C9.37811 13.9926 8.9898 13.9926 8.7507 13.7369C8.51159 13.4812 8.51159 13.066 8.7507 12.8104L11.3789 10.0001L8.75261 7.18979C8.51351 6.93412 8.51351 6.51892 8.75261 6.26326C8.99172 6.00759 9.38002 6.00759 9.61913 6.26326L12.6797 9.53579L12.6778 9.53783Z" fill="#9B9B9B"/>
<path fill-rule="evenodd" clip-rule="evenodd" d="M12.6797 9.53579L9.61913 6.26326C9.38002 6.00759 8.99172 6.00759 8.75261 6.26326C8.51351 6.51892 8.51351 6.93412 8.75261 7.18979L11.3789 10.0001L8.7507 12.8104C8.51159 13.066 8.51159 13.4812 8.7507 13.7369C8.9898 13.9926 9.37811 13.9926 9.61722 13.7369L12.6778 10.4644C12.9169 10.2087 12.9169 9.7935 12.6778 9.53783L12.6797 9.53579ZM12.9646 9.55656C13.1516 9.89076 13.1101 10.3276 12.8401 10.6162L9.77957 13.8887C9.45264 14.2383 8.91538 14.2383 8.58845 13.8887C8.26945 13.5477 8.26945 12.9997 8.58845 12.6586L11.0748 10.0001L8.59036 7.34164C8.59035 7.34162 8.59038 7.34166 8.59036 7.34164C8.27142 7.00054 8.27139 6.45259 8.59036 6.11152C8.91729 5.76194 9.45456 5.76194 9.78149 6.11152L12.984 9.53584L12.9646 9.55656Z" fill="#9B9B9B"/>
</svg>
