<svg width="190" height="46" viewBox="0 0 190 46" fill="none" xmlns="http://www.w3.org/2000/svg">
<path d="M108.401 37.5253C108.29 37.5253 108.234 37.4808 108.234 37.3936C108.234 37.3731 108.235 37.3508 108.239 37.3269C108.242 37.303 108.249 37.2773 108.262 37.2499L108.531 36.6C108.605 36.4171 108.723 36.3247 108.884 36.3247H110.062C110.285 36.3247 110.494 36.2922 110.689 36.2272C110.883 36.1622 111.052 36.0665 111.194 35.9433C111.337 35.8202 111.448 35.6663 111.528 35.485C111.609 35.302 111.649 35.0968 111.649 34.871C111.649 34.6504 111.581 34.4845 111.445 34.3699C111.309 34.257 111.132 34.2006 110.916 34.2006H108.93L106.712 39.7212C106.638 39.9059 106.517 39.9983 106.35 39.9983H103.167C103.056 39.9983 103 39.9572 103 39.8752C103 39.8341 103.009 39.7828 103.028 39.7212L105.636 33.2668C105.71 33.0889 105.827 33 105.988 33H113.913C114.377 33 114.739 33.1266 114.999 33.3797C115.259 33.6328 115.389 33.9954 115.389 34.4674C115.389 34.9326 115.29 35.3533 115.092 35.7295C114.894 36.1058 114.631 36.4273 114.303 36.6941C113.975 36.9609 113.599 37.1661 113.176 37.3098C112.752 37.4535 112.314 37.5253 111.862 37.5253H108.401ZM116.809 39.9983C116.487 39.9983 116.202 39.9419 115.955 39.829C115.707 39.7161 115.5 39.5605 115.333 39.3621C115.166 39.1637 115.039 38.9294 114.953 38.6592C114.866 38.389 114.823 38.0965 114.823 37.7818C114.823 37.3782 114.885 36.9814 115.008 36.5915C115.132 36.2016 115.304 35.8287 115.523 35.473C115.743 35.1173 116.003 34.7889 116.303 34.4879C116.603 34.1869 116.931 33.9269 117.287 33.708C117.642 33.4891 118.018 33.3164 118.414 33.1898C118.81 33.0633 119.215 33 119.63 33H124.177C124.505 33 124.794 33.0547 125.045 33.1642C125.295 33.2736 125.504 33.4258 125.671 33.6208C125.838 33.8158 125.965 34.0467 126.052 34.3135C126.138 34.5803 126.182 34.871 126.182 35.1857C126.182 35.5893 126.118 35.9878 125.991 36.3811C125.864 36.7745 125.69 37.149 125.467 37.5048C125.244 37.8605 124.981 38.1906 124.678 38.495C124.375 38.7994 124.044 39.0628 123.685 39.2851C123.326 39.5075 122.949 39.6819 122.553 39.8085C122.157 39.935 121.758 39.9983 121.356 39.9983H116.809ZM122.395 35.8048C122.494 35.5654 122.572 35.355 122.627 35.1771C122.683 34.9993 122.708 34.8488 122.702 34.7256C122.702 34.5255 122.638 34.3887 122.511 34.3135C122.384 34.2382 122.197 34.2006 121.95 34.2006H120.688C120.508 34.2006 120.343 34.2262 120.191 34.2775C120.04 34.3289 119.899 34.4161 119.769 34.5392C119.639 34.6641 119.514 34.8282 119.393 35.0335C119.273 35.2387 119.15 35.4969 119.027 35.8048L118.581 36.9267C118.346 37.5219 118.229 37.9614 118.229 38.2419C118.229 38.4403 118.281 38.5839 118.386 38.6694C118.491 38.7549 118.643 38.7977 118.841 38.7977H120.112C120.304 38.7977 120.481 38.7652 120.641 38.7002C120.802 38.6352 120.957 38.5309 121.105 38.3855C121.254 38.2419 121.396 38.0503 121.532 37.8109C121.668 37.5698 121.808 37.2756 121.95 36.9267L122.395 35.8048ZM137.782 39.7931C137.621 39.9436 137.463 40.012 137.308 39.9983H136.779C136.606 39.9983 136.495 39.9299 136.445 39.7931L135.276 35.432L130.385 39.7931C130.299 39.8683 130.218 39.9213 130.144 39.9521C130.07 39.9829 129.996 39.9983 129.921 39.9983H129.383C129.21 39.9983 129.099 39.9299 129.049 39.7931L126.822 33.3489C126.816 33.3284 126.813 33.2942 126.813 33.2463C126.813 33.0821 126.909 33 127.1 33H130.599C130.698 33 130.781 33.0154 130.849 33.0462C130.917 33.077 130.964 33.13 130.989 33.2052L132.232 37.0635L136.594 33.2052C136.755 33.0684 136.943 33 137.16 33H137.735C137.958 33 138.091 33.0684 138.134 33.2052L139.248 37.3201L143.832 33.2052C143.975 33.0821 144.16 33.0137 144.389 33H144.797C144.89 33 144.937 33.0342 144.937 33.1026C144.937 33.1779 144.89 33.2565 144.797 33.3386L137.782 39.7931ZM148.092 36.7865C147.98 36.7865 147.925 36.7454 147.925 36.6633C147.925 36.6154 147.937 36.5676 147.962 36.5197L148.222 35.8527C148.29 35.6748 148.41 35.5859 148.584 35.5859H153.01C153.14 35.5859 153.205 35.6201 153.205 35.6885C153.205 35.6885 153.199 35.7159 153.187 35.7706L152.843 36.6018C152.787 36.7249 152.682 36.7865 152.528 36.7865H148.092ZM144.816 39.9983C144.5 39.9983 144.22 39.9436 143.976 39.8341C143.732 39.7247 143.524 39.5724 143.354 39.3775C143.184 39.1825 143.056 38.9482 142.969 38.6746C142.883 38.4009 142.839 38.1033 142.839 37.7818C142.839 37.385 142.901 36.99 143.025 36.5966C143.149 36.2033 143.32 35.8304 143.54 35.4781C143.76 35.1258 144.019 34.7975 144.319 34.493C144.619 34.1886 144.947 33.9269 145.303 33.708C145.659 33.4891 146.035 33.3164 146.431 33.1898C146.827 33.0633 147.229 33 147.637 33H154.124C154.235 33 154.291 33.0445 154.291 33.1334C154.291 33.1744 154.282 33.2189 154.263 33.2668L153.994 33.9235C153.92 34.1082 153.799 34.2006 153.632 34.2006H149.317C149.113 34.2006 148.932 34.2245 148.774 34.2724C148.616 34.3203 148.469 34.4058 148.333 34.529C148.197 34.6538 148.069 34.818 147.948 35.0232C147.827 35.2284 147.705 35.4901 147.581 35.8048L147.136 36.9267C147.018 37.214 146.93 37.462 146.871 37.6724C146.813 37.881 146.783 38.0606 146.783 38.2111C146.783 38.4232 146.842 38.5754 146.96 38.6643C147.077 38.7532 147.247 38.7977 147.47 38.7977H151.822C151.934 38.7977 151.989 38.8422 151.989 38.9294C151.989 38.9773 151.977 39.0252 151.952 39.073L151.692 39.7229C151.618 39.9059 151.498 39.9983 151.33 39.9983H144.816ZM160.304 39.9983C160.044 39.9983 159.874 39.9059 159.794 39.7212L158.244 36.4684C158.226 36.4342 158.21 36.4034 158.198 36.376C158.185 36.3486 158.179 36.3144 158.179 36.2734C158.179 36.2323 158.198 36.1708 158.235 36.0887L158.337 35.8527C158.411 35.6748 158.529 35.5859 158.69 35.5859H159.952C160.36 35.5859 160.666 35.4935 160.87 35.3088C161.075 35.1241 161.177 34.9086 161.177 34.6623C161.177 34.5187 161.122 34.4058 161.014 34.3237C160.906 34.2416 160.737 34.2006 160.508 34.2006H158.439L156.212 39.7212C156.138 39.9059 156.02 39.9983 155.859 39.9983H152.676C152.559 39.9983 152.5 39.9572 152.5 39.8752C152.5 39.8204 152.512 39.7691 152.537 39.7212L155.145 33.2668C155.219 33.0889 155.336 33 155.497 33H163.608C164.041 33 164.381 33.1146 164.629 33.3438C164.876 33.5729 165 33.8722 165 34.2416C165 34.5768 164.927 34.8881 164.782 35.1754C164.637 35.4627 164.439 35.7159 164.188 35.9348C163.937 36.1537 163.644 36.335 163.306 36.4786C162.969 36.6223 162.612 36.7181 162.235 36.7659L163.636 39.6699C163.648 39.711 163.654 39.7418 163.654 39.7623C163.654 39.817 163.631 39.87 163.585 39.9213C163.538 39.9726 163.478 39.9983 163.404 39.9983H160.304Z" fill="#2B2A29"/>
<path d="M81.1504 28C80.962 28 80.8679 27.9297 80.8679 27.7887C80.8679 27.7184 80.8826 27.6304 80.9126 27.5249L82.6087 23.0733L76.7313 27.5249C76.5131 27.689 76.3121 27.8094 76.1285 27.8855C75.9453 27.962 75.7789 28 75.6302 28H74.7673C74.6184 28 74.4719 27.962 74.3282 27.8855C74.1844 27.8094 74.0579 27.689 73.9488 27.5249L70.9283 23.0733L69.2468 27.5249C69.1276 27.8416 68.9343 28 68.6665 28H67.2825C67.0941 28 67 27.9297 67 27.7887C67 27.6949 67.0197 27.6072 67.0595 27.5249L71.2258 16.4576C71.3447 16.1525 71.5383 16 71.8062 16H72.9817C73.3188 16 73.5768 16.1525 73.7554 16.4576L77.9218 23.918L88.1887 16.4576C88.6054 16.1761 89.0121 16.0235 89.4089 16H90.5991C90.7778 16 90.867 16.0764 90.867 16.2286C90.867 16.2638 90.8645 16.2993 90.8596 16.3345C90.8547 16.3696 90.8421 16.4106 90.8225 16.4576L86.6412 27.5249C86.5223 27.8416 86.3335 28 86.0758 28H81.1504ZM88.0433 28C87.8647 28 87.7755 27.9297 87.7755 27.7887C87.7755 27.7184 87.7902 27.6304 87.8199 27.5249L92.0013 16.4576C92.1202 16.1525 92.3087 16 92.5667 16H97.6854C97.8739 16 97.968 16.0764 97.968 16.2286C97.968 16.2993 97.9483 16.3754 97.9085 16.4576L93.7422 27.5249C93.6233 27.8416 93.4348 28 93.1768 28H88.0433ZM107.375 28C106.959 28 106.686 27.8416 106.557 27.5249L104.072 21.9471C104.043 21.8887 104.018 21.8358 103.998 21.7888C103.978 21.742 103.968 21.6833 103.968 21.613C103.968 21.5427 103.998 21.4369 104.057 21.2963L104.221 20.8915C104.34 20.5864 104.529 20.4338 104.786 20.4338H106.81C107.465 20.4338 107.956 20.2755 108.283 19.9588C108.611 19.6421 108.774 19.2729 108.774 18.8504C108.774 18.6043 108.688 18.4104 108.514 18.2698C108.34 18.1292 108.07 18.0585 107.703 18.0585H104.385L100.814 27.5249C100.695 27.8416 100.506 28 100.248 28H95.1446C94.9561 28 94.8618 27.9297 94.8618 27.7887C94.8618 27.6949 94.8817 27.6072 94.9212 27.5249L99.1025 16.4576C99.2214 16.1525 99.4099 16 99.6679 16H112.673C113.367 16 113.913 16.1964 114.31 16.5895C114.706 16.9823 114.905 17.4954 114.905 18.1292C114.905 18.7039 114.788 19.2377 114.555 19.7301C114.322 20.2229 114.005 20.6571 113.603 21.0322C113.201 21.4076 112.73 21.7184 112.189 21.9648C111.648 22.2112 111.076 22.3754 110.47 22.4576L112.717 27.4369C112.737 27.5072 112.747 27.5601 112.747 27.5952C112.747 27.689 112.71 27.78 112.635 27.8681C112.561 27.9561 112.464 28 112.345 28H107.375ZM126.053 28C125.845 28 125.681 27.962 125.562 27.8855C125.443 27.8094 125.329 27.689 125.22 27.5249L122.11 22.2993C122.05 22.1935 122.021 22.088 122.021 21.9825C122.021 21.9119 122.03 21.8358 122.05 21.7536C122.07 21.6717 122.105 21.572 122.155 21.4546L122.333 20.9444C122.413 20.7448 122.492 20.5983 122.571 20.5045C122.65 20.4106 122.759 20.3226 122.899 20.2404L130.145 16.4576C130.403 16.3286 130.651 16.22 130.889 16.1319C131.127 16.0442 131.365 16 131.603 16H134.743C134.882 16 134.951 16.0645 134.951 16.1935C134.951 16.2522 134.929 16.3196 134.884 16.396C134.84 16.4722 134.763 16.5395 134.654 16.5983L127.214 20.4516L131.648 27.2082C131.697 27.2904 131.722 27.3843 131.722 27.4898C131.722 27.6304 131.673 27.7507 131.573 27.8503C131.474 27.95 131.325 28 131.127 28H126.053ZM113.45 28C113.271 28 113.182 27.9297 113.182 27.7887C113.182 27.6949 113.202 27.6072 113.241 27.5249L117.423 16.4576C117.542 16.1525 117.725 16 117.973 16H123.092C123.28 16 123.375 16.0764 123.375 16.2286C123.375 16.2993 123.355 16.3754 123.315 16.4576L119.134 27.5249C119.015 27.8416 118.826 28 118.569 28H113.45ZM134.999 28C134.483 28 134.027 27.9032 133.63 27.7097C133.233 27.5162 132.901 27.2492 132.633 26.9089C132.366 26.569 132.162 26.1671 132.023 25.7037C131.884 25.2406 131.815 24.7391 131.815 24.1995C131.815 23.5074 131.914 22.8269 132.112 22.1584C132.311 21.4897 132.586 20.8506 132.938 20.2404C133.29 19.6305 133.707 19.0674 134.188 18.5513C134.669 18.0353 135.195 17.5893 135.766 17.2142C136.336 16.8388 136.939 16.5425 137.573 16.3254C138.208 16.1086 138.858 16 139.523 16H146.814C147.339 16 147.803 16.0938 148.205 16.2815C148.607 16.4692 148.941 16.7302 149.209 17.0646C149.477 17.3987 149.681 17.7948 149.819 18.2521C149.958 18.7098 150.028 19.2083 150.028 19.7479C150.028 20.44 149.926 21.1231 149.723 21.7978C149.519 22.4721 149.239 23.1142 148.882 23.7244C148.525 24.3343 148.103 24.9003 147.617 25.4222C147.131 25.9443 146.601 26.3958 146.025 26.777C145.45 27.1582 144.845 27.4575 144.21 27.6746C143.575 27.8916 142.935 28 142.29 28H134.999ZM143.957 20.8092C144.116 20.3987 144.239 20.0381 144.329 19.733C144.418 19.4283 144.458 19.1699 144.448 18.959C144.448 18.6159 144.346 18.3814 144.143 18.2521C143.939 18.1231 143.639 18.0585 143.243 18.0585H141.219C140.931 18.0585 140.666 18.1028 140.423 18.1905C140.18 18.2785 139.954 18.4282 139.746 18.6395C139.537 18.8533 139.337 19.1348 139.143 19.487C138.95 19.8389 138.754 20.2817 138.555 20.8092L137.841 22.733C137.464 23.7538 137.276 24.5072 137.276 24.9883C137.276 25.3283 137.36 25.5747 137.529 25.7214C137.697 25.8682 137.94 25.9414 138.258 25.9414H140.296C140.604 25.9414 140.887 25.8856 141.144 25.7743C141.402 25.6628 141.65 25.4837 141.888 25.2345C142.127 24.9883 142.355 24.6597 142.573 24.2492C142.791 23.8357 143.014 23.3313 143.243 22.733L143.957 20.8092ZM164.301 28C164.003 28 163.75 27.9793 163.542 27.9384C163.334 27.8974 163.096 27.8007 162.828 27.6481L152.859 22.1935L150.865 27.5249C150.746 27.8416 150.557 28 150.299 28H148.38C148.191 28 148.097 27.9297 148.097 27.7887C148.097 27.6949 148.117 27.6072 148.156 27.5249L152.323 16.4576C152.442 16.1525 152.635 16 152.903 16H154.599C154.927 16 155.187 16.0177 155.38 16.0529C155.574 16.088 155.8 16.1819 156.058 16.3345L165.298 21.5601L167.232 16.4576C167.351 16.1525 167.54 16 167.798 16H169.717C169.906 16 170 16.0764 170 16.2286C170 16.2993 169.98 16.3754 169.94 16.4576L165.774 27.5249C165.655 27.8416 165.462 28 165.194 28H164.301Z" fill="#2B2A29"/>
<path fill-rule="evenodd" clip-rule="evenodd" d="M43.3682 11.0283C43.3682 11.0283 54.0451 11.9916 56.7311 15.7789C59.4171 19.5663 56.8654 21.028 55.6567 22.2905C54.448 23.5529 45.2485 30.0643 20 30.596C32.541 31.9363 56.2774 30.0791 64.5205 22.955C75.1715 13.7497 48.3669 10.6655 43.3682 11.0283Z" fill="#077660"/>
<path fill-rule="evenodd" clip-rule="evenodd" d="M61 3.76172C61 3.76172 45.6663 2.00411 36.3976 6.59825C17.9377 15.7483 37.5081 24.142 41.1846 25C36.7074 24.6232 30.9288 23.3018 26.8098 20.7089C24.292 19.124 17.9504 13.3895 25.8024 7.06923C34.1265 0.368703 53.7235 1.49163 61 3.76172Z" fill="#077660"/>
<path fill-rule="evenodd" clip-rule="evenodd" d="M63 5.80472C63 5.80472 50.5681 5.18979 42.3701 9.10025C26.8595 16.499 44.0061 24.0802 46.0575 23.9994C42.2463 23.6582 37.3016 22.5879 33.821 20.4095C31.2034 18.7711 27.5243 15.6044 32.3572 10.8239C37.8116 5.42858 56.6191 3.851 63 5.80472Z" fill="#033C34"/>
</svg>
