<svg width="20" height="20" viewBox="0 0 20 20" fill="none" xmlns="http://www.w3.org/2000/svg">
<path d="M20 2C20 1.44772 19.5523 1 19 1H1C0.447716 1 0 1.44772 0 2V2.25C0 2.80228 0.447715 3.25 1 3.25H19C19.5523 3.25 20 2.80228 20 2.25V2ZM20 9.875C20 9.32272 19.5523 8.875 19 8.875H7.66667C7.11438 8.875 6.66667 9.32272 6.66667 9.875V10.125C6.66667 10.6773 7.11438 11.125 7.66667 11.125H19C19.5523 11.125 20 10.6773 20 10.125V9.875ZM20 17.75C20 17.1977 19.5523 16.75 19 16.75H1C0.447716 16.75 0 17.1977 0 17.75V18C0 18.5523 0.447715 19 1 19H19C19.5523 19 20 18.5523 20 18V17.75Z" fill="#2B2A29"/>
</svg>
